<?xml version="1.0" encoding="UTF-8"?>
<!-- Generator: Adobe Illustrator 21.1.0, SVG Export Plug-In . SVG Version: 6.00 Build 0)  -->
<svg version="1.1" id="Слой_1" xmlns="http://www.w3.org/2000/svg" xmlns:xlink="http://www.w3.org/1999/xlink" x="0px" y="0px" viewBox="0 0 212 75.2" style="enable-background:new 0 0 212 75.2;" xml:space="preserve">
<style type="text/css">
	.st0{fill-rule:evenodd;clip-rule:evenodd;fill:#F1780C;}
	.st1{fill:#FEFEFE;}
</style>
<path class="st0" d="M180.7,74.8h-1.6V67l-2.9,7.8h-1.6v-12h1.6v7.8l2.9-7.8h1.6v10.5H212v1.5H180.7L180.7,74.8z M194.9,14.7h3.5  V4.1l-3.5,1.3V1.7l4.6-1.7h3.1v14.7h3.1v3.8h-10.8V14.7L194.9,14.7z M176.7,60.6h2.2v1.5h-2.2V60.6L176.7,60.6z M170.5,62.8h1.6v12  h-1.6V62.8L170.5,62.8z M166.3,74.8h-2.8v-12h1.6v6.4h1.2c0.8,0,1.4,0.3,2,0.8c0.5,0.5,0.8,1.2,0.8,2c0,0.8-0.3,1.4-0.8,2  C167.7,74.5,167.1,74.8,166.3,74.8L166.3,74.8z M167.5,71.9c0-0.3-0.1-0.6-0.4-0.8c-0.2-0.2-0.5-0.4-0.9-0.4h-1.2v2.6h1.2  c0.3,0,0.6-0.1,0.9-0.4c0.2-0.2,0.4-0.5,0.4-0.8V71.9L167.5,71.9z M159.5,71.1h-2.4v3.6h-1.6v-12h1.6v6.9h2.4v-6.9h1.6v12h-1.6V71.1  L159.5,71.1z M150.5,74.8h-2.8v-12h1.6v6.4h1.2c0.8,0,1.4,0.3,2,0.8c0.5,0.5,0.8,1.2,0.8,2c0,0.8-0.3,1.4-0.8,2  C151.9,74.5,151.2,74.8,150.5,74.8L150.5,74.8z M151.7,71.9c0-0.3-0.1-0.6-0.4-0.8c-0.2-0.2-0.5-0.4-0.9-0.4h-1.2v2.6h1.2  c0.3,0,0.6-0.1,0.9-0.4c0.2-0.2,0.4-0.5,0.4-0.8V71.9L151.7,71.9z M143.7,64.3h-2.4V72c0,0.8-0.3,1.4-0.8,2c-0.5,0.5-1.2,0.8-2,0.8  h-0.4v-1.5h0.4c0.3,0,0.6-0.1,0.8-0.4c0.2-0.2,0.4-0.5,0.4-0.8v-9.3h5.6v12h-1.6V64.3L143.7,64.3z M135.2,72.5h-2.4l-0.4,2.3h-1.5  l2.3-12h1.6l2.3,12h-1.5L135.2,72.5L135.2,72.5z M134,66.3l-0.9,4.7h1.8L134,66.3L134,66.3z M127.6,74.8l-1.7-5l-0.7,1.5v3.5h-1.6  v-12h1.6v4.9l2.4-4.9h1.8l-2.4,4.9l2.4,7.1H127.6L127.6,74.8z M119.4,62.8h1.6v12h-1.6V62.8L119.4,62.8z M115.2,74.8h-2.8v-12h1.6  v6.4h1.2c0.8,0,1.4,0.3,2,0.8c0.5,0.5,0.8,1.2,0.8,2c0,0.8-0.3,1.4-0.8,2C116.6,74.5,116,74.8,115.2,74.8L115.2,74.8z M116.4,71.9  c0-0.3-0.1-0.6-0.3-0.8c-0.2-0.2-0.5-0.4-0.9-0.4H114v2.6h1.2c0.3,0,0.6-0.1,0.9-0.4c0.2-0.2,0.3-0.5,0.3-0.8V71.9L116.4,71.9z   M107.2,74.9c-0.8,0-1.4-0.3-2-0.8c-0.5-0.5-0.8-1.2-0.8-2v-0.8h1.6v0.9c0,0.3,0.1,0.6,0.4,0.9c0.2,0.2,0.5,0.3,0.9,0.3  c0.3,0,0.6-0.1,0.9-0.3c0.2-0.2,0.3-0.5,0.3-0.9v-1.5c0-0.3-0.1-0.6-0.3-0.9c-0.2-0.2-0.5-0.3-0.9-0.3h-1v-1.5h1.1  c0.3,0,0.6-0.2,0.8-0.4c0.2-0.2,0.3-0.5,0.3-0.8v-1.5c0-0.3-0.1-0.6-0.3-0.8c-0.2-0.2-0.5-0.3-0.9-0.3c-0.3,0-0.6,0.1-0.9,0.3  c-0.2,0.2-0.4,0.5-0.4,0.8v0.9h-1.6v-0.8c0-0.8,0.3-1.4,0.8-2c0.5-0.5,1.2-0.8,2-0.8c0.8,0,1.4,0.3,2,0.8c0.5,0.5,0.8,1.2,0.8,2v1.3  c0,0.8-0.3,1.5-0.9,2.1c0.6,0.6,0.9,1.2,0.9,2v1.3c0,0.8-0.3,1.4-0.8,2C108.6,74.6,107.9,74.9,107.2,74.9L107.2,74.9z M99.1,74.3  c-0.4,0.3-0.8,0.5-1.3,0.5h-1.2v-1.6h1.2c0.3,0,0.4-0.1,0.5-0.4l0.5-1.8l-2.2-8.3h1.5l1.5,5.8l1.5-5.8h1.5l-2.8,10.4  C99.8,73.7,99.5,74,99.1,74.3L99.1,74.3z M93,66.2l-1,1.9h-1.4l-1-1.9v8.6h-1.1H88H58.7v-1.5H88V62.8h1.6l1.7,3.4l1.7-3.4h1.6v12H93  V66.2L93,66.2z M46.6,51.9c0,12.8-10.4,23.3-23.3,23.3C10.4,75.2,0,64.8,0,51.9c0-12.8,10.3-23.2,23.1-23.3V32  c-11,0.1-19.8,9-19.8,20c0,11,9,20,20,20c11,0,20-8.9,20-20c0-7.8-4.5-14.6-11.1-17.9v17.8c0,5-4.1,9.1-9.1,9.1S14,56.9,14,51.8  s4.1-9.1,9.1-9.1c2.2,0,4.3,0.8,5.9,2.1V32.8v-3.4v-4.8v-2.3v-1c7,1.3,13.1,4.9,17.6,9.9v5.3c-3.4-5.1-8.4-9.1-14.4-11.1v5  C40.7,34,46.6,42.2,46.6,51.9L46.6,51.9z M23.1,46c-3.2,0-5.9,2.6-5.9,5.9c0,3.2,2.6,5.9,5.9,5.9c3.2,0,5.9-2.6,5.9-5.9  C29,48.6,26.4,46,23.1,46L23.1,46z"/>
<path class="st1" d="M192.9,21.9v34.6l14.4-34.6h4.7v46.9h-4.7V34.2l-14.4,34.6h-4.7V21.9H192.9L192.9,21.9z M160.2,45v7.6h3.5  c1,0,1.8-0.3,2.5-1c0.7-0.7,1-1.5,1-2.5v-0.6c0-1-0.3-1.8-1-2.5c-0.7-0.7-1.5-1-2.5-1H160.2L160.2,45z M176,57.1V21.9h4.7v35.2H176  L176,57.1z M155.5,57.1V21.9h4.7v18.8h3.5c2.3,0,4.2,0.8,5.8,2.4s2.4,3.5,2.4,5.8c0,2.3-0.8,4.2-2.4,5.8c-1.6,1.6-3.5,2.4-5.8,2.4  H155.5L155.5,57.1z M136.8,45v7.6h3.5c1,0,1.8-0.3,2.5-1c0.7-0.7,1-1.5,1-2.5v-0.6c0-1-0.3-1.8-1-2.5c-0.7-0.7-1.5-1-2.5-1H136.8  L136.8,45z M136.8,26.3v14.4h3.8c0.9,0,1.7-0.5,2.3-1.1c0.6-0.7,0.9-1.5,0.9-2.4v-7.3c0-1-0.3-1.8-1-2.5c-0.7-0.7-1.5-1-2.5-1H136.8  L136.8,26.3z M132.1,57.1V21.9h8.2c2.3,0,4.2,0.8,5.8,2.4c1.6,1.6,2.4,3.5,2.4,5.8v6.7c0,2.3-0.9,4.4-2.6,6c1.8,1.6,2.6,3.6,2.6,6  c0,2.3-0.8,4.2-2.4,5.8c-1.6,1.6-3.5,2.4-5.8,2.4H132.1L132.1,57.1z M113.3,26.3V42h3.5c1,0,1.8-0.3,2.5-1c0.7-0.7,1-1.5,1-2.5v-8.7  c0-1-0.3-1.8-1-2.5c-0.7-0.7-1.5-1-2.5-1H113.3L113.3,26.3z M108.6,57.1V21.9h8.2c2.3,0,4.2,0.8,5.8,2.4c1.6,1.6,2.4,3.5,2.4,5.8  v8.1c0,2.3-0.8,4.2-2.4,5.8c-1.6,1.6-3.5,2.4-5.8,2.4h-3.5v10.7H108.6L108.6,57.1z M88,57.1V21.9h14.1v4.4h-9.4V42h7.9v4.4h-7.9v6.3  h9.4v4.4H88L88,57.1z M76.3,68.8V26.3H63.4v42.5h-4.7V21.9H81v46.9H76.3L76.3,68.8z"/>
</svg>