<?xml version="1.0" encoding="UTF-8"?>
<!DOCTYPE svg PUBLIC "-//W3C//DTD SVG 1.1//EN" "http://www.w3.org/Graphics/SVG/1.1/DTD/svg11.dtd">
<!-- Creator: CorelDRAW X8 -->
<svg xmlns="http://www.w3.org/2000/svg" xml:space="preserve" width="136.55mm" height="128.633mm" version="1.1" style="shape-rendering:geometricPrecision; text-rendering:geometricPrecision; image-rendering:optimizeQuality; fill-rule:evenodd; clip-rule:evenodd" viewBox="0 0 97397 91750" xmlns:xlink="http://www.w3.org/1999/xlink">
 <defs>
  <style type="text/css">
   <![CDATA[
    .fil3 {fill:#FEFEFE}
    .fil1 {fill:#727271}
    .fil0 {fill:#EF7F1A}
    .fil2 {fill:#FEFEFE;fill-rule:nonzero}
    .fil4 {fill:#727271;fill-rule:nonzero}
   ]]>
  </style>
 </defs>
 <g id="Слой_x0020_1">
  <metadata id="CorelCorpID_0Corel-Layer"/>
  <path class="fil0" d="M97375 76514l0 3526c0,6440 -5270,11710 -11710,11710l-85220 0 0 -3527 85220 0c6440,0 11710,-5269 11710,-11709z"/>
  <path class="fil1" d="M0 34172l97397 0 0 19056c0,6471 -5295,11766 -11766,11766l-85631 0 0 -30822z"/>
  <path class="fil0" d="M11766 0l18426 0 0 30822 -30192 0 0 -19056c0,-6471 5295,-11766 11766,-11766zm21777 0l30311 0 0 30822 -30311 0 0 -30822zm33662 0l30192 0 0 30822 -30192 0 0 -30822z"/>
  <path class="fil2" d="M30188 61779l3351 0 0 -18131 -3351 0 0 18131zm3351 -20255l0 -3487 -3351 0 0 3487 3351 0zm30311 20238l3350 0 0 -18130 -3350 0 0 18130zm3350 -20255l0 -3487 -3350 0 0 3487 3350 0zm-63431 20221l8244 0c9280,0 15146,-3669 15146,-11984 0,-8248 -6442,-11816 -15376,-11816l-8014 0 0 23800zm4142 -2928l0 -17943 3757 0c7017,0 11273,2962 11273,9257 0,5723 -3681,8686 -10506,8686l-4524 0zm43376 3262c3153,0 5601,-437 7975,-1211l0 -10874 -3969 0 0 8584c-853,202 -1929,371 -3487,371 -5638,0 -10349,-2761 -10349,-9325 0,-6430 4451,-8955 9681,-8955 3042,0 4637,472 6566,1044l1076 -2794c-1744,-741 -3710,-1347 -7642,-1347 -8865,0 -13799,4579 -13799,12389 0,7675 5305,12118 13948,12118zm29476 34c6589,0 12467,-2188 12467,-6935 0,-7473 -17171,-6818 -17171,-11531 0,-2053 3187,-3045 6410,-3045 2892,0 5401,658 7629,1399l1141 -2981c-2133,-842 -4646,-1448 -8864,-1448 -5547,0 -10619,2121 -10619,6161 0,7877 17189,6380 17189,11699 0,2592 -4390,3584 -8182,3584 -3319,0 -6281,-839 -8888,-1715l-1019 3095c2133,876 5356,1717 9907,1717z"/>
  <path class="fil3" d="M52297 21035c551,681 1417,1058 2570,1128l0 -1943c-417,-37 -848,-144 -1061,-406 -494,-612 -150,-2231 154,-3661 209,-982 425,-1996 449,-2928 0,-3249 -1784,-5024 -5024,-5024 -2360,0 -4279,1920 -4279,4278 0,1995 1622,3618 3618,3618 966,0 1859,-439 2449,-1205 326,-425 246,-1035 -178,-1361 -425,-328 -1035,-248 -1362,176 -219,286 -550,449 -909,449 -925,0 -1677,-752 -1677,-1677 0,-1288 1049,-2337 2338,-2337 2132,0 3083,944 3083,3059 -19,727 -216,1653 -407,2548 -414,1945 -842,3955 236,5286zm2570 4281c-1989,706 -3506,698 -4510,-26 -1132,-818 -1474,-2494 -1421,-3682 19,-411 -225,-789 -607,-942 -3305,-1333 -5360,-4144 -5360,-7339 0,-4244 3455,-7697 7698,-7697 1502,0 2951,433 4200,1249l0 -2228c-1301,-631 -2730,-962 -4200,-962 -5314,0 -9638,4323 -9638,9638 0,3796 2283,7120 5976,8850 69,1641 669,3570 2217,4688 1420,1024 3316,1189 5645,493l0 -2042z"/>
  <path class="fil3" d="M93816 16354c0,-1496 -1217,-2712 -2711,-2712 0,0 -255,0 -317,0 69,-239 118,-485 118,-745 0,-1496 -1217,-2713 -2713,-2713 0,0 -3851,0 -5867,0 228,-578 388,-1215 388,-1858 0,-957 -345,-1919 -1316,-2687 -212,-167 -483,-240 -751,-201 -266,38 -505,185 -663,404 -1105,1559 -3334,2387 -5301,3116 -1864,692 -3504,1303 -3908,2550l2829 0c561,-257 1253,-514 1764,-704 1742,-647 3823,-1433 5323,-2825 32,131 54,267 54,404 0,1030 -813,2127 -862,2190 -131,175 -199,384 -199,595 0,150 34,299 103,438 167,335 506,547 880,547l7526 0c409,0 744,334 744,744 0,410 -335,745 -744,745 -34,0 -6047,9 -6047,9 -544,0 -984,441 -984,984 0,544 440,985 984,985l8959 -11c410,0 744,335 744,745 0,410 -334,751 -744,751l-8959 0c-544,0 -984,447 -984,991 0,544 440,984 984,984 0,0 7967,-4 7985,-5 369,43 658,355 658,737 0,409 -332,753 -744,753l-7899 0c-544,0 -984,449 -984,992 0,545 440,985 984,985 0,0 4776,-6 4806,-9 372,42 661,354 661,736 0,410 -334,744 -745,744l-9157 0 0 1969 9157 0c1497,0 2715,-1217 2715,-2713 0,-261 -50,-506 -118,-745 173,0 580,0 580,0 1496,0 2713,-1217 2713,-2712 0,-410 -97,-794 -259,-1143 785,-476 1317,-1331 1317,-2315z"/>
  <path class="fil3" d="M5449 17849c975,-2010 3372,-3607 6415,-4279 -435,665 -680,1462 -713,2353 -35,1040 338,2032 1046,2794 710,761 1676,1200 2715,1236 1817,63 3344,-1363 3408,-3179 30,-879 -341,-1705 -1021,-2267 -375,-311 -933,-259 -1245,118 -311,376 -258,934 119,1245 253,209 392,515 379,843 -29,841 -737,1502 -1578,1473 -569,-20 -1095,-259 -1484,-676 -388,-416 -590,-958 -570,-1526 26,-789 288,-1419 775,-1874 595,-555 1525,-847 2628,-835 3957,319 7213,2146 8389,4574l1899 0c-1146,-3300 -5059,-5840 -9894,-6313 -62,-16 -125,-26 -191,-30 -41,-1 -81,3 -124,2 -433,-35 -874,-54 -1321,-54 -5571,0 -10257,2729 -11529,6395l1897 0z"/>
  <path class="fil4" d="M10699 72632l-2948 8709 -2246 0 -2949 -8709 2232 0 1865 5904 1866 -5904 2180 0zm5065 8709l-4631 0 0 -1522 1237 0 0 -5665 -1237 0 0 -1522 4631 0 0 1522 -1237 0 0 5665 1237 0 0 1522zm9067 -4347c0,813 -175,1538 -522,2180 -351,641 -792,1132 -1325,1476 -443,293 -929,481 -1451,565 -524,83 -1080,126 -1671,126l-2679 0 0 -8709 2657 0c601,0 1165,40 1689,118 526,78 1019,266 1479,567 564,365 1008,861 1334,1481 326,623 489,1356 489,2196zm-2215 -19c0,-571 -97,-1060 -290,-1468 -192,-407 -491,-724 -891,-954 -289,-164 -595,-254 -913,-267 -319,-17 -699,-25 -1143,-25l-40 0 0 5438 40 0c481,0 887,-7 1217,-26 330,-17 645,-121 943,-313 351,-226 619,-535 801,-932 183,-397 276,-881 276,-1453zm3492 4366l0 -8709 5797 0 0 1665 -3653 0 0 1521 3370 0 0 1665 -3370 0 0 2192 3653 0 0 1666 -5797 0zm15050 -4353c0,1408 -369,2516 -1109,3322 -741,807 -1754,1210 -3041,1210 -1292,0 -2305,-409 -3042,-1225 -737,-817 -1104,-1919 -1104,-3307 0,-1397 367,-2503 1104,-3316 737,-812 1750,-1219 3042,-1219 1287,0 2300,405 3041,1213 740,809 1109,1917 1109,3322zm-2215 -6c0,-517 -54,-960 -159,-1323 -105,-366 -246,-665 -422,-899 -186,-237 -393,-409 -625,-511 -234,-103 -473,-156 -723,-156 -265,0 -507,49 -721,144 -216,96 -422,266 -623,512 -177,225 -319,527 -427,900 -110,375 -165,822 -165,1339 0,535 51,979 154,1332 104,353 246,648 426,886 186,242 395,416 629,518 234,104 476,155 727,155 253,0 499,-56 737,-168 237,-110 444,-283 616,-516 185,-254 326,-550 426,-887 100,-337 150,-778 150,-1326zm12926 4359l2897 -8709 2349 0 2898 8709 -2214 0 -532 -1761 -2715 0 -530 1761 -2153 0zm4922 -3354l-882 -2889 -881 2889 1763 0zm7533 3533c-1151,0 -2037,-283 -2658,-848 -618,-565 -928,-1392 -928,-2480l0 -5560 2156 0 0 5429c0,605 112,1053 336,1351 223,295 587,443 1094,443 493,0 854,-142 1086,-427 231,-284 347,-741 347,-1367l0 -5429 2157 0 0 5554c0,1072 -302,1897 -908,2472 -602,575 -1498,862 -2682,862zm12886 -4526c0,813 -175,1538 -523,2180 -349,641 -791,1132 -1323,1476 -444,293 -929,481 -1452,565 -524,83 -1080,126 -1671,126l-2679 0 0 -8709 2657 0c601,0 1165,40 1689,118 527,78 1020,266 1479,567 563,365 1008,861 1334,1481 326,623 489,1356 489,2196zm-2216 -19c0,-571 -96,-1060 -289,-1468 -192,-407 -491,-724 -891,-954 -289,-164 -595,-254 -913,-267 -319,-17 -700,-25 -1143,-25l-40 0 0 5438 40 0c481,0 887,-7 1217,-26 330,-17 645,-121 943,-313 352,-226 619,-535 801,-932 183,-397 275,-881 275,-1453zm7770 4366l-4631 0 0 -1522 1237 0 0 -5665 -1237 0 0 -1522 4631 0 0 1522 -1237 0 0 5665 1237 0 0 1522zm9220 -4353c0,1408 -370,2516 -1110,3322 -740,807 -1753,1210 -3040,1210 -1293,0 -2306,-409 -3043,-1225 -736,-817 -1103,-1919 -1103,-3307 0,-1397 367,-2503 1103,-3316 737,-812 1750,-1219 3043,-1219 1287,0 2300,405 3040,1213 740,809 1110,1917 1110,3322zm-2216 -6c0,-517 -53,-960 -158,-1323 -104,-366 -246,-665 -423,-899 -185,-237 -392,-409 -625,-511 -233,-103 -473,-156 -722,-156 -266,0 -507,49 -721,144 -216,96 -422,266 -622,512 -178,225 -321,527 -429,900 -109,375 -165,822 -165,1339 0,535 52,979 155,1332 104,353 246,648 426,886 185,242 395,416 629,518 234,104 476,155 727,155 253,0 499,-56 736,-168 238,-110 444,-283 617,-516 185,-254 326,-550 426,-887 100,-337 149,-778 149,-1326z"/>
  <polygon class="fil4" points="49256,72529 46478,81326 45135,81326 47901,72529 "/>
 </g>
</svg>