<svg version="1.1" id="Слой_1" xmlns="http://www.w3.org/2000/svg" xmlns:xlink="http://www.w3.org/1999/xlink" x="0px" y="0px" viewBox="0 0 1810.1 569.9" style="enable-background:new 0 0 1810.1 569.9;" xml:space="preserve">
<style>
	path {
		fill: white;
	}
</style>
<path class="st0" d="M105.2,557.4v9.4H0V459h101v9.4H9.7V505h63.4v9.4H9.7v43H105.2L105.2,557.4z M214,566.8V459h9.7v107.8H214  L214,566.8z M454,482.9c-6.1-6.4-13-11-20.7-13.9c-7.7-2.9-16.6-4.4-26.7-4.4c-7.2,0-14,1-20.4,3.1c-6.4,2.1-12,5-16.8,8.8  c-11.7,9.2-17.5,21.3-17.5,36.1c0,7.2,1.3,13.7,4,19.5c2.6,5.9,6.4,10.9,11.1,15.1c4.8,4.2,10.5,7.5,17.3,9.8  c6.7,2.3,14.2,3.5,22.4,3.5c10.7,0,19.9-1.4,27.7-4.2c7.8-2.8,14.4-7.4,19.7-13.6l8.1,5.2c-5.4,7-12.6,12.4-21.8,16.1  c-9.1,3.7-19.9,5.6-32.4,5.6c-14,0-26.3-2.8-37.1-8.5c-9.5-5-16.8-11.6-21.8-19.9c-5.1-8.3-7.6-17.9-7.6-28.7  c0-17.3,6.7-31.4,20.2-42.3c5.8-4.8,12.5-8.4,20.2-10.9c7.7-2.5,16-3.8,24.8-3.8c12.4,0,23.3,2.1,32.8,6.2  c9.5,4.1,17.3,10,23.3,17.8L454,482.9L454,482.9z M694.1,566.8v-52.4h-94.8v52.4h-9.7V459h9.7v46h94.8v-46h9.7v107.8H694.1  L694.1,566.8z M938.8,566.8v-52.4h-94.8v52.4h-9.7V459h9.7v46h94.8v-46h9.7v107.8H938.8L938.8,566.8z M1177.2,555.1  c-5.7,4.7-12.4,8.3-20,10.9c-7.7,2.6-16,3.9-25.1,3.9h-0.1c-9.1,0-17.5-1.3-25.2-3.9c-7.7-2.6-14.4-6.2-20.1-10.9  c-13.4-10.9-20-25.1-20-42.4c0-17.2,6.7-31.3,20.2-42.3c5.8-4.8,12.5-8.4,20.3-11c7.7-2.6,16-3.9,24.9-3.9c8.8,0,17,1.3,24.8,3.9  c7.7,2.6,14.5,6.2,20.3,11c13.5,11,20.2,25.1,20.2,42.3C1197.3,530.1,1190.6,544.2,1177.2,555.1L1177.2,555.1z M1169.1,476.7  c-4.8-3.8-10.4-6.7-16.8-8.8c-6.4-2.1-13.2-3.2-20.4-3.2c-7.2,0-14,1.1-20.4,3.2c-6.4,2.1-12,5.1-16.8,8.8  c-11.7,9.2-17.5,21.2-17.5,36c0,7.1,1.3,13.7,3.9,19.5c2.6,5.9,6.3,10.9,11.1,15.2c4.8,4.2,10.5,7.5,17.3,9.7  c6.7,2.3,14.2,3.4,22.5,3.4c8.3,0,15.8-1.2,22.5-3.5c6.7-2.3,12.5-5.6,17.3-9.7c4.8-4.2,8.5-9.2,11.1-15.1c2.6-5.9,4-12.4,4-19.5  C1186.8,498,1180.9,486,1169.1,476.7L1169.1,476.7z M1324.4,566.8V459h9.7v98.4h83.6v9.4H1324.4L1324.4,566.8z M1547.1,468.4v98.4  h-9.7v-98.4h-51.8V459h113.2v9.4H1547.1L1547.1,468.4z M1810.1,566.8h-109.3v-9.4l90.6-89h-89.4V459h104.1v9.4l-92.7,89h96.8V566.8  L1810.1,566.8z M1141.1,235v39.2H944.4v-78.3H905h-39.4V235v39.2v0H668.9V235h157.4v-39.2h-78.7v-39.2h78.7v-39.2H668.9V78.3h196.8  v78.3H905h39.4V78.3h196.8v39.2H983.7v39.2h78.7v39.2h-78.7V235H1141.1L1141.1,235z M590.2,352.5V0h629.7v352.5H590.2L590.2,352.5z   M1180.5,39.2h-551v274.2h551V39.2L1180.5,39.2z"/>
</svg>