<?xml version="1.0" encoding="UTF-8"?>
<!-- Generator: Adobe Illustrator 21.1.0, SVG Export Plug-In . SVG Version: 6.00 Build 0)  -->
<svg version="1.1" id="Слой_1" xmlns="http://www.w3.org/2000/svg" xmlns:xlink="http://www.w3.org/1999/xlink" x="0px" y="0px" viewBox="0 0 1700.3 606.8" style="enable-background:new 0 0 1700.3 606.8;" xml:space="preserve">
<style type="text/css">
	.st0{fill-rule:evenodd;clip-rule:evenodd;fill:#275C3E;}
	.st1{fill:#CB1419;}
</style>
<path class="st0" d="M1683.9,61.6h-106.7l-78,269.7H1409l78-269.7h-124L1379.3,0h321L1683.9,61.6L1683.9,61.6z M1195.6,61.6  l-21.8,75.3h140.9l-17.8,61.6H1156l-20.6,71.2h140.9l-17.8,61.6h-140.9h-26h-72.5L1116.3,0h72.5h24.6h140.9l-17.8,61.6H1195.6  L1195.6,61.6z M826.3,331.3l93-302.6L745.6,331.3H618.4L826.3,0h205.2l-88.9,331.3H826.3L826.3,331.3z M528.1,61.6l-21.8,75.3h140.9  l-17.8,61.6H488.5l-20.6,71.2h140.9L591,331.3H450.1h-26h-72.5L448.8,0h72.5h24.6h140.9L669,61.6H528.1L528.1,61.6z M312,331.3  H201.2L164.3,152L292.8,0h116.3L270.9,164.3L312,331.3L312,331.3z M0.1,331.3L93.1,0h113.5l-93,331.3H0.1L0.1,331.3z"/>
<path class="st1" d="M107.6,496.3L84.3,605H70.6l17.8-82.9L14.1,605H0l23.3-108.7h13.9l-17.7,83.5L94,496.3H107.6L107.6,496.3z   M193.9,605h-14.5l10.7-51.2h-56.3L123,605h-14.5l22.8-108.7h14.5l-9.4,45.1h56.3l9.4-45.1h14.5L193.9,605L193.9,605z M316.2,508.7  h-35.4L260.7,605h-14.5l20.1-96.3h-35.6l2.6-12.4h85.5L316.2,508.7L316.2,508.7z M409.9,508.7H346l-7.1,33.8h62.3l-2.6,12.4h-62.3  l-7.9,37.8h68.4l-2.6,12.3h-82.9L334,496.3h78.4L409.9,508.7L409.9,508.7z M508.9,536.7c-1.8,4.6-4.1,8.5-6.9,11.5  c-2.8,3-5.6,5.3-8.5,6.8c-2.9,1.5-5.9,2.7-9.2,3.4c-7,1.6-14,2.4-21.1,2.4h-27.2l-9.2,44.1h-14.5L435,496.3h45.4  c7.9,0,13.7,0.9,17.7,2.7c3.9,1.8,7.2,4.9,9.7,9.3c2.6,4.4,3.9,9.3,3.9,14.7C511.6,527.5,510.7,532.1,508.9,536.7L508.9,536.7z   M495.2,514.7c-1.4-2.2-3.3-3.9-5.9-5c-2.5-1.1-7.4-1.6-14.5-1.6H447l-8.4,40.5h23.9c9.3,0,16.1-1,20.5-3c4.4-2,7.8-5.1,10.5-9.2  c2.6-4.1,3.9-8.5,3.9-13C497.3,519.8,496.6,516.9,495.2,514.7L495.2,514.7z M598.7,605h-14.5l10.7-51.2h-56.3L527.8,605h-14.5  l22.8-108.7h14.5l-9.4,45.1h56.3l9.4-45.1h14.5L598.7,605L598.7,605z M721.9,508.7h-63.9l-7.1,33.8h62.3l-2.6,12.4h-62.3l-7.9,37.8  h68.4l-2.6,12.3h-82.9l22.8-108.7h78.4L721.9,508.7L721.9,508.7z M822.2,508.7h-35.4L766.8,605h-14.5l20.1-96.3h-35.6l2.6-12.4h85.5  L822.2,508.7L822.2,508.7z M858.5,572.4h-41l2.8-13.4h40.9L858.5,572.4L858.5,572.4z M970.7,605h-14.3l11.3-52.8  c2.6-12.2,6.4-25.9,11.3-41.1c-3.1,7.1-7,14.7-11.6,22.8L927,605h-14l-10.9-69.7c-1-6.4-1.7-13.8-2.1-22.3  c-1.2,9.5-2.4,17.1-3.6,22.7L881.9,605h-14.2l22.7-108.7h17.9l11,70.4c1.4,9.2,2.4,18.1,2.8,26.6c3-7.3,8.1-17.2,15.1-29.7  l38.1-67.3h18.2L970.7,605L970.7,605z M1067,605l-5.3-31.3h-44l-17.4,31.3h-15.9l61.6-108.7h17.1l17.9,108.7H1067L1067,605z   M1055.8,535.2c-1.6-10.8-2.6-19.8-3-27.1c-2.5,6.2-6.1,13.6-10.8,22.2l-17.9,32.2h35.9L1055.8,535.2L1055.8,535.2z M1185.7,508.7  h-55.9l-20.5,96.3h-14.2l23-108.7h70.2L1185.7,508.7L1185.7,508.7z M1239,605l-5.3-31.3h-43.9l-17.4,31.3h-15.9l61.6-108.7h17.1  L1253,605H1239L1239,605z M1227.7,535.2c-1.6-10.8-2.6-19.8-3-27.1c-2.5,6.2-6.1,13.6-10.8,22.2l-17.9,32.2h35.9L1227.7,535.2  L1227.7,535.2z M1340.7,539.9c-4.3,4.6-9.8,7.5-16.2,8.7c5.3,2.2,9.3,5.4,12,9.4c2.7,4.1,4,9,4,14.9c0,9.8-3.8,17.9-11.4,24.3  c-7.6,6.4-17.4,9.6-29.3,9.6c-21.4,0-34.3-10.9-38.5-32.6l12.5-3.8c1.8,16.1,10.4,24.2,25.8,24.2c8.6,0,15.2-2.3,19.8-6.8  c4.5-4.5,6.8-9.6,6.8-15.3c0-4.2-1.1-7.7-3.3-10.6c-2.2-2.9-5-4.8-8.4-5.7c-3.4-0.9-8.2-1.4-14.2-1.4c-2.6,0-5,0.1-7,0.1l3.8-13  c2.6,0.1,4.5,0.1,5.7,0.1c10.6,0,18.3-1.8,23-5.5c4.7-3.7,7.1-8.2,7.1-13.7c0-4.5-1.7-8.4-5-11.6s-7.5-4.8-12.5-4.8  c-5.7,0-11,1.7-16.1,5.2c-5,3.4-8.9,9.4-11.6,17.8l-14-3c3.2-10.3,8.5-18.1,15.8-23.6c7.3-5.5,15.9-8.2,25.8-8.2  c9.2,0,16.8,2.6,22.9,7.8c6.1,5.2,9.2,12,9.2,20.4C1347.2,529.6,1345.1,535.3,1340.7,539.9L1340.7,539.9z M1461.2,496.3L1438,605  h-13.8l17.8-82.9l-74.3,82.9h-14.1l23.3-108.7h13.9l-17.7,83.5l74.5-83.5H1461.2L1461.2,496.3z M1547.5,605H1533l10.7-51.2h-56.3  l-10.7,51.2h-14.5l22.8-108.7h14.5l-9.4,45.1h56.3l9.4-45.1h14.5L1547.5,605L1547.5,605z"/>
</svg>