<?xml version="1.0" encoding="UTF-8"?>
<!-- Generator: Adobe Illustrator 19.1.0, SVG Export Plug-In . SVG Version: 6.00 Build 0)  -->
<svg version="1.1" id="Слой_1" xmlns="http://www.w3.org/2000/svg" xmlns:xlink="http://www.w3.org/1999/xlink" x="0px" y="0px" viewBox="0 0 1487.2 1499" style="enable-background:new 0 0 1487.2 1499;" xml:space="preserve">
<style type="text/css">
	.st0{fill-rule:evenodd;clip-rule:evenodd;fill:#d51719;}
	.st1{fill-rule:evenodd;clip-rule:evenodd;fill:white;}
	.st2{fill-rule:evenodd;clip-rule:evenodd;fill:#FFFFFF;}
	.st3{fill-rule:evenodd;clip-rule:evenodd;fill:#80a231;}
</style>
<path class="st0" d="M1487.1,1312.3c-8.2,48.1-16,96.3-24.7,144.4c-3.5,19.7-13.7,30.6-36.4,25.1c-24.1-5.8-48.8-9.4-73.2-14.2  c-17.4-3.4-24.2-14.7-21.1-31.5c9.2-49.8,18.7-99.6,28.7-149.3c3.3-16.6,13.6-24.2,31.5-20.3c23.4,5.1,46.9,9.8,70.5,13.5  C1481.7,1283,1488.4,1294,1487.1,1312.3L1487.1,1312.3z"/>
<path class="st1" d="M697.1,1193v-80.8c0-22.6-6.3-31.8-21.9-31.8c-12.2,0-20.4,5.9-32.8,18.2v94.4h-26.4v-133.1h22.4l1.7,16.3  c10.8-10.1,24.1-19.6,41.7-19.6c27.6,0,41.6,17.7,41.6,52.7v83.6H697.1L697.1,1193z M499,1499c-6.2,0-11.6-0.9-16-2.8l-1.9-0.8  l5.4-21.9l2.6,0.9c3.6,1.3,6.6,2,8.9,2c15,0,22.8-14.1,26.7-25.9l2.6-8.8L476,1314.1l-4.4,20.8l-2.7-1c-3.9-1.5-6.6-2-11.6-2  c-5.8,0-20.2,2.7-29.9,27.5v84.4H401v-133.1h22.4l1.5,19.1c9.5-14.3,22.1-22.4,35.1-22.4c6.4,0,10.7,0.9,14.9,3.1l0.3,0.2h27.1  l29.7,81.4c2.5,7.2,5.1,14.8,7.5,22.1c1-3.2,1.9-6.4,2.9-9.7c2.1-7.1,4.3-14.2,6.3-20.8l23.4-73h26.2l-49.5,142  C541.9,1472.6,529.1,1499,499,1499L499,1499z M561.1,1179.3c-14.4,11.2-27.9,16.7-41.3,16.7c-23.9,0-40-15.6-40-38.8  c0-28.5,23.6-43.6,78.8-50.1c-0.6-18.7-8.4-27.8-24-27.8c-11.7,0-23.8,4.4-37.1,13.3l-2.2,1.5l-11-19.2l2-1.2  c17.8-11.4,35.2-17.1,51.9-17.1c30.2,0,46.8,19.6,46.8,55v81.3h-22.3L561.1,1179.3L561.1,1179.3z M558.7,1126.2  c-46.6,6.1-53,18.3-53,29.6c0,15,11,18.1,20.2,18.1c10.7,0,19.9-4.4,32.7-15.7V1126.2L558.7,1126.2z M468.6,1133.9h-85.9  c2.2,24.4,17.7,40,39.9,40c11.1,0,20.9-3.1,30.7-9.8l2.2-1.5l10.2,18.5l-1.9,1.2c-14.4,9.3-28.3,13.6-43.8,13.6  c-37.6,0-63.8-28.6-63.8-69.5c0-45.4,31.1-69.9,60.3-69.9c33,0,53.4,24,53.4,62.6c0,5.8-0.7,10.8-1,12.6L468.6,1133.9L468.6,1133.9z   M416.7,1078.7c-17.5,0-31,14-34.1,35h63.5C445.4,1091.1,435,1078.7,416.7,1078.7L416.7,1078.7z M349.7,1083c-3.8-1.5-6.5-2-11.6-2  c-5.8,0-20.1,2.7-29.9,27.5v84.4h-26.4v-133.1h22.4l1.5,19.1c9.5-14.3,22.1-22.4,35.2-22.4c6.5,0,10.7,0.9,14.9,3.1l1.6,0.9l-5,23.5  L349.7,1083L349.7,1083z M196,1196c-30.8,0-61.9-23.9-61.9-69.5c0-45.9,31.2-69.9,61.9-69.9c30.8,0,61.9,24,61.9,69.9  C257.9,1172.2,226.8,1196,196,1196L196,1196z M196,1079.4c-20.7,0-34.6,18.9-34.6,47.2c0,27.9,13.9,46.7,34.6,46.7  c20.9,0,34.9-18.8,34.9-46.7C230.9,1098.3,216.9,1079.4,196,1079.4L196,1079.4z M134.6,1193h-30.2l-50.7-88.4l-26.9,32.1v56.3H0  v-177.9h26.8v83.4l69.4-83.4H127l-56.3,68.5L134.6,1193L134.6,1193z M59.3,1402.1c12.7,13.2,29.6,20.7,46.2,20.7  c20.9,0,33.9-9.9,33.9-25.9c0-16.2-11.5-21.3-27.3-28.5l-25-10.9c-24.7-10.5-36.6-25.8-36.6-46.6c0-28.1,24-48.5,57-48.5  c19.9,0,39.1,8.1,52.8,22.2l1.5,1.6l-14.6,17.6l-1.9-1.8c-11.3-10.5-23.6-15.7-37.8-15.7c-18.4,0-29.9,8.8-29.9,23.1  c0,15.2,13.8,21,27.1,26.5l24.8,10.6c18.4,8,37.1,20,37.1,48.5c0,30.4-25.2,51.6-61.2,51.6c-23.9,0-46.1-9.4-62.4-26.5l-1.5-1.6  l16.2-18.6L59.3,1402.1L59.3,1402.1z M189.9,1274.8h22.6v35.9h34.7v22.3h-34.7v69.1c0,15.8,5,22.3,17.4,22.3c4.2,0,9.9-1.6,13.8-3.1  l2.5-1l5.5,21l-2.2,0.7c-7.5,2.4-16.2,4.8-24.3,4.8c-26.3,0-39-14.8-39-45.2v-68.6h-19.1v-21l20.2-1.2L189.9,1274.8L189.9,1274.8z   M315.1,1307.4c30.8,0,61.9,24,61.9,69.9c0,45.6-31.2,69.5-61.9,69.5c-30.8,0-61.9-23.9-61.9-69.5  C253.2,1331.5,284.4,1307.4,315.1,1307.4L315.1,1307.4z M315.1,1424c20.8,0,34.9-18.8,34.9-46.7c0-28.2-14-47.2-34.9-47.2  c-20.7,0-34.6,19-34.6,47.2C280.5,1405.3,294.4,1424,315.1,1424L315.1,1424z"/>
<path class="st2" d="M1454.8,1413.8c-4.6,0.4-0.7-8-17.4-7.5c-4,0.1-11.8,2.2-12,8.3c-0.3,7.9,22.4,26,22.1,39.9  c-0.2,13.4-26.8,20.9-43,20.9c-6.3,0-10.5-2.7-10.4-7.9c0.2-5.1,1.4-4.6,12.3-5.6c10.9-1,27.5-5.7,27.6-12.9  c0.1-9.3-19.7-21.5-20-34.4c-0.1-6.5,3.9-15,23.2-15.6c9.6-0.3,22.9,2.5,23.2,10.6C1460.7,1412.8,1456.4,1413.6,1454.8,1413.8  L1454.8,1413.8z M1433.9,1374.3c2.3,0.1,11,0.6,10.8,4.8c-0.1,3.5-7.4,5.2-9.3,4.8c-10.4-1.8-20,2.1-21-5.2  C1413.8,1374.3,1429.9,1374.2,1433.9,1374.3L1433.9,1374.3z M1444.8,1363.5c-3.8,0-11.1-4.8-17.6-4.9c-20.1-0.1-18.4,4.9-22.4,5.1  c-2.8,0.1-5.4-1.6-5.5-5.8c-0.1-6.4,4.8-13.1,26.6-13c15.9,0,25,0.6,25,11C1450.9,1360.1,1448.5,1363.5,1444.8,1363.5L1444.8,1363.5  z M1398.1,1297.6c-10.5,5.1-21.2,9.7-21.6,10.6c-0.8,1.8-5.1,24.1-4.8,27.8c0.5,5.8-3.7,6.9-7,7.5c-5.9,1-7.7-3-7.6-13  c0-9.5,4.4-24.5,7.5-34.5c5.9-19.5,13.3-31.9,19.5-31.2c3,0.4,7.3,3.7,7.7,8.5c0.2,3.3-4,8-6.8,12.6c-3.1,5.1-4.7,9.9-4.7,9.9  c0,0,12.8-6.9,15.9-7.9c9.3-3.1,17.5-7,19.6-6.6c4.2,0.7,7.1,0.7,6.7,4.7C1421.9,1290.6,1415.4,1289.2,1398.1,1297.6L1398.1,1297.6z   M1383,1310.3c4.1,0.2,8,4.7,16.8,8.9c12.3,5.8,21.5,12.2,21.1,17.8c-0.2,2.4-2.1,4.8-4.5,4.9c-10.3,0.1-17-5.7-25-11.9  c-7.7-6-12.9-11.4-12.9-15.5C1378.6,1312.7,1380.5,1310.1,1383,1310.3L1383,1310.3z M1395.7,1380.6c3.4-9.2,7.9-15.7,10.9-15.1  c3.3,0.6,7,1.5,6.8,8.2c-0.1,2.8-1.6,4.8-3.8,9.5c-2.9,6.4-6.2,16.9-7.6,25.7c-0.9,6,0.4,7.9-6.4,7.9c-6.8,0-7.2-6.7-7.2-12  c0-3.3,1.3-9.1,3.1-14.4C1393,1386.2,1395,1382.4,1395.7,1380.6L1395.7,1380.6z"/>
<path class="st3" d="M1175.9,830c-27.4,32.3-37.9,28.4-116,108c-47.6,48.5-75.2,73.5-75,75c0.5,3.9,63.4-11.8,121-3  c44.1,6.7,114,32.1,116,57c1,12.8-17.4,37.8-34,63c-14.2,21.5-26.7,43-38,58c-7.9,10.4-17.7,16.2-17,18c2.2,5.5,102,4.6,97,81  c-0.7,11.3-5.9,51.1-11,94c-3.7,31-7.2,61.4-15,85c-7.6,23-32.8,24.9-37,23c-8.8-4-15.4-2.9-21-10c-8.2-10.5-11.4-27.3-8-33  c4.9-8.1,19.1-64.1,15-115c-2.9-35.8,8.6-60.7-13-83c-10-10.3-36.3,3.7-52,2c-14.3-1.5-15.9,16.7-40,19c-49.4,4.6-54.5-32.9-54-43  c0.3-5.6,37-45.2,62-84c20.9-32.5,26.9-71.9,24-80c-2.5-6.9-52.5,3.1-74,8c-9.1,2.1-42.5,6.9-67,16c-16.2,6-8.6,14.1-26,15  c-34.6,1.8-32.2-28.5-35-46c-1.2-7.4-5.6-7.3-6-10c-1.5-9.1,28.5-22.9,33-22c13.5,2.7,18.1,2.2,35-12c14.8-12.4,41.3-36.4,62-63  c16.4-21.1,36.5-42.2,53-65c13.7-19,24-39.7,37-58c33.4-46.7,62.3-88.2,64-107c0.9-10.6-94.8,4.6-124-23c-3.8-3.6,48-37.4,100-36  c30.5,0.8,105.5,33.6,96,77C1223.1,757.9,1213.7,785.4,1175.9,830L1175.9,830z M831.9,871c-53.7,51.2-116.4,80.7-118,98  c-0.9,9.5,53.5,0,77-1c32.7-1.5,59.2-2.7,78-6c9.9-1.8,25.1-11.6,29,3c4,15.1-30.5,15.7-75,26c-29.6,6.8-65.3,14.9-83,16  c-16.6,1-80.4,6.4-83-35c-1.5-24.2,61.2-53.6,107-104c44.8-49.2,82.7-106.9,82-109c-1.5-4.4-54-3.6-58-50c-1.8-21.3,17-119.2-1-119  c-12.5,0.2-30.4,9.9-48,17c-16.3,6.6-19.2-0.3-48,21c-18.6,13.7-30.2,32.7-41,47c-8.6,11.4-18.3,19-19,25c-1.9,17.1,45,13.5,42,35  c-0.9,6.3-8.6,13.3-11,27c-9,51.2-43.9,133.3-168,129c-29-1-78.7-19.9-68-63c21.6-86.6,105.2-149,151-204c26.9-32.4,34.7-55.2,35-66  c0.3-8.9-0.1-9.2-10-13c-18-6.9-66.5,55-150,53c-69.7-1.7-67.6-42-84-78c-9.2-20.1-22.8-30.4-21-46c8.5-72.9,136.1-115.9,146-275  c4.4-69.7-10.2-71.1-24-87c-18.3-21.2-39.8-42.4-41-83c-0.3-8.9,31.5-29.3,54-29c136.5,1.6,199.6,161.2,200,212  c1.2,135.1-97.3,230.4-96.1,240.8c1.5,12.4,120.2,21.7,132.2,74c3.5,15.3-5.5,31.9-1.1,35.2c7.5,5.6,20.6-18.8,66.6-18.7  c65.1,0.1,87.5,51.3,87.4,65.7c-0.1,35.1-34.5,89.9-32,111c0.5,4.2,72.7-12.8,78,25C918.8,758.1,881.7,823.5,831.9,871L831.9,871z   M581.9,768c-4.1-5.6-5.2-8.9-8-6c-6.8,7.1-28.8,31.4-37.3,41.2c-12.6,14.4-24.3,31.7-19.7,36.8c5.2,5.7,16.1,6.9,41-19  c22.7-23.7,24-40.8,30-47C591.5,770.3,583.8,770.6,581.9,768L581.9,768z"/>
</svg>