<svg version="1.1" id="Слой_1" xmlns="http://www.w3.org/2000/svg" xmlns:xlink="http://www.w3.org/1999/xlink" x="0px" y="0px" viewBox="0 0 221.2 82.9" style="enable-background:new 0 0 221.2 82.9;" xml:space="preserve">
<style type="text/css">
	.st0{fill-rule:evenodd;clip-rule:evenodd;fill:#b40e0e;}
</style>
<path class="st0" d="M220.8,72.8c-3.4,0-6.8,0-10.3,0c-0.1,0-0.1,0-0.2,0c-0.1-0.3-0.1-0.4,0.3-0.5c0.6-0.1,1.2-0.3,1.7-0.5  c0.5-0.2,0.7-0.6,0.7-1.1c-0.1-0.6-0.1-1.1-0.3-1.6c-0.6-1.6-1.4-3.2-2-4.9c-0.1-0.3-0.2-0.3-0.5-0.3c-3.2,0-6.4,0-9.5,0  c-0.3,0-0.4,0.1-0.5,0.4c-0.7,1.8-1.5,3.6-2.2,5.3c-0.1,0.3-0.2,0.5-0.3,0.8c-0.1,0.8,0.3,1.4,1.1,1.7c0.5,0.2,0.9,0.2,1.4,0.3  c0.2,0,0.3,0.1,0.2,0.3c0,0.1-0.2,0.2-0.2,0.2c-2.4,0-4.9,0-7.3,0c0,0,0,0-0.1,0c-0.1-0.3-0.1-0.4,0.3-0.5c1.1-0.3,1.8-1,2.3-1.9  c0.6-1.2,1.2-2.4,1.7-3.7c1.9-4.2,3.7-8.5,5.5-12.7c1.3-2.9,2.6-5.9,3.8-8.8c0.1-0.1,0.2-0.2,0.3-0.3c0.1,0.1,0.2,0.2,0.3,0.3  c1.7,3.8,3.3,7.6,5,11.4c1.6,3.7,3.2,7.4,4.8,11.1c0.4,0.9,0.8,1.7,1.2,2.6c0.6,1.2,1.5,1.9,2.8,2c0.1,0,0.3,0.1,0.4,0.1  c0,0.1,0.1,0.2,0.1,0.3c0,0,0,0,0,0.1C221.1,72.8,221,72.8,220.8,72.8L220.8,72.8z M205.4,51.8C205.4,51.8,205.4,51.8,205.4,51.8  c-1.5,3.4-3,6.8-4.5,10.3c3,0,5.9,0,8.9,0C208.3,58.7,206.9,55.2,205.4,51.8L205.4,51.8z M184.5,73.1c-1.8,0.2-3.5,0-5.1-0.7  c-0.7-0.3-1.6-0.4-2.4-0.6c-0.8-0.1-1.4,0.3-1.7,1c-0.1,0.3-0.1,0.3-0.5,0.3c0-0.1,0-0.2,0-0.4c0-2.8,0-5.6,0-8.5  c0-0.1,0.1-0.4,0.2-0.4c0.2-0.1,0.3,0,0.4,0.3c0.3,1.6,0.9,3.1,1.8,4.4c1.5,2,3.4,3,5.9,3c0.9,0,1.7-0.2,2.5-0.5  c1.9-0.9,2.7-2.7,2.2-4.8c-0.3-1.4-1.1-2.5-2.2-3.4c-1.2-1.1-2.6-1.9-4-2.7c-1.7-1-3.3-1.9-4.6-3.3c-1.4-1.4-2.1-3-2.1-5  c0-2.8,1.9-5.4,4.5-6.3c2.5-0.9,4.9-0.7,7.3,0.2c0.4,0.1,0.7,0.3,1.1,0.4c1,0.3,1.6,0,2-0.9c0.1-0.2,0.2-0.3,0.4-0.2  c0,2.9,0,5.8,0,8.8c-0.4,0.1-0.4,0-0.5-0.3c-0.2-3.4-2.8-6.3-6.1-6.9c-1.2-0.2-2.4,0-3.5,0.7c-2,1.2-2.4,3.6-1,5.5  c0.8,1.2,2,2,3.2,2.7c1.6,1,3.3,2,4.9,3c1.3,0.9,2.5,1.9,3.4,3.2c1.7,2.4,1.7,6-0.1,8.3C189,71.9,186.9,72.8,184.5,73.1L184.5,73.1z   M179.3,24.5c-3.6,0.1-7.2,0.3-10.9,0.4c-2.3,0.1-4.6,0.2-7,0.3c-3,0.1-6,0.2-9,0.4c-2.3,0.1-4.7,0.2-7,0.3c-1.2,0-2.3,0.1-3.5,0.1  c-0.3,0-0.4,0.1-0.4,0.4c-0.7,4.5-1.4,9-2.2,13.6c-0.1,0.4-0.1,0.8-0.2,1.3c0,0,0,0-0.1,0c-0.3-2.3-0.7-4.6-1-6.9  c-0.3-2.3-0.7-4.6-1-6.9c-4.4,2.2-8.8,4.4-13.1,6.6c0,0,0,0,0,0c3.4-2.8,6.9-5.6,10.3-8.4c0,0,0-0.1,0-0.1c-7.7-0.5-15.3-1-23-1.5  c0,0,0,0,0-0.1c7.7-0.5,15.4-1,23.2-1.5c-2.3-3-4.6-6-6.8-8.9c0,0,0,0,0.1-0.1c3.1,2.3,6.3,4.6,9.5,7c0.7-6.9,1.3-13.8,1.9-20.6  c0,0,0,0,0,0c0.7,6.8,1.4,13.6,2.1,20.5c3.7-2.4,7.3-4.7,10.9-7c0,0,0,0,0,0c-2.8,3-5.7,5.9-8.5,8.9c0,0,0,0.1,0,0.1  c15.2,0.5,30.4,1,45.6,1.5c0,0,0,0,0,0.1c-0.1,0-0.1,0-0.2,0C185.9,24.2,182.6,24.3,179.3,24.5L179.3,24.5z M104.1,38.1  c1.5,3.8,3,7.5,4.6,11.3c1.4,3.5,2.8,6.9,4.3,10.4c1.4,3.4,2.8,6.8,4.2,10.2c0.6,1.4,1.1,2.7,1.7,4.1c0.1,0.1,0.1,0.2,0.2,0.4  c0,0,0.1,0,0.1,0c4.9-14.3,9.7-28.7,14.6-43c0,0,0,0,0.1,0c0.1,0.3,0.1,0.6,0.2,0.9c0.2,1.3,0.4,2.5,0.6,3.8c0,0.2,0,0.5-0.1,0.7  c-1,2.9-2,5.9-3,8.8c-1.2,3.5-2.4,7.1-3.6,10.6c-1.3,3.8-2.6,7.5-3.9,11.3c-1.4,4.1-2.8,8.2-4.2,12.3c-0.3,0.9-0.6,1.8-0.9,2.7  c-0.1,0.3-0.2,0.4-0.5,0.3c-0.1,0-0.1,0-0.2,0c-0.4,0.1-0.5-0.1-0.7-0.4c-2.2-5.2-4.5-10.4-6.7-15.6c-2.3-5.3-4.6-10.5-6.8-15.8  c-2.1-4.8-4.1-9.6-6.2-14.3c-0.7-1.6-1.5-3.3-2.3-4.8c-1.1-2.3-3-3.4-5.5-3.7c-0.6-0.1-1.2-0.1-1.8-0.2c0,0,0-0.1,0-0.1  C88.1,27,88.1,27,88.9,27c6.3,0,12.5,0,18.8,0c0.1,0,0.2,0,0.3,0c0.4,0,0.7,0.4,0.4,0.8c0,0.1-0.2,0.1-0.3,0.1  c-1,0.1-1.9,0.3-2.9,0.7c-1.2,0.5-2.1,1.2-2.6,2.4c-0.4,1-0.4,2.1,0,3.1C103.1,35.4,103.6,36.7,104.1,38.1L104.1,38.1z M92.9,45.2  c0.1-0.1,0.2-0.2,0.3-0.4c0.1,0.1,0.2,0.2,0.3,0.3c2.2,5,4.3,9.9,6.5,14.9c1.4,3.3,2.9,6.5,4.3,9.8c0.2,0.4,0.4,0.9,0.7,1.2  c0.6,0.9,1.5,1.1,2.5,1.3c0.1,0,0.1,0,0.2,0c0,0.2,0,0.3,0,0.4c-0.1,0-0.3,0-0.4,0c-3.3,0-6.7,0-10,0c-0.1,0-0.1,0-0.2,0  c-0.1-0.1-0.2-0.1-0.2-0.2c0-0.1,0.1-0.2,0.2-0.3c0.5-0.2,1-0.3,1.5-0.4c0.8-0.3,1.1-0.7,1-1.5c0-0.5-0.1-1-0.3-1.5  c-0.7-1.6-1.4-3.2-2.1-4.9c-0.1-0.2-0.2-0.3-0.4-0.3c-3.2,0-6.5,0-9.7,0c-0.2,0-0.3,0.1-0.4,0.3c-0.8,1.8-1.5,3.6-2.3,5.5  c-0.1,0.2-0.2,0.4-0.2,0.6C84,71,84.3,71.6,85,71.9c0.5,0.2,1,0.3,1.6,0.5c0.1,0,0.2,0,0.4,0c0,0.2,0,0.3,0,0.4c-0.1,0-0.2,0-0.4,0  c-2.3,0-4.6,0-6.9,0c-0.1,0-0.3-0.1-0.4-0.2c-0.1-0.3,0.1-0.3,0.3-0.4c1-0.3,1.7-0.9,2.2-1.8c0.7-1.3,1.3-2.6,1.9-4  c2-4.6,4-9.2,6-13.8C90.8,50.2,91.9,47.7,92.9,45.2L92.9,45.2z M96.4,62.1c-1.5-3.5-2.9-6.9-4.4-10.3c0,0-0.1,0-0.1,0  c-1.5,3.4-2.9,6.8-4.4,10.3C90.6,62.1,93.5,62.1,96.4,62.1L96.4,62.1z M75.8,72.5c-0.1,0.2-0.2,0.3-0.4,0.3c-6.8,0-13.7,0-20.5,0  c-0.1,0-0.3,0-0.4-0.1c0,0-0.1-0.2,0-0.3c0.1-0.1,0.2-0.1,0.3-0.1c0.6-0.1,1.2,0,1.8-0.2c1.2-0.3,1.7-1,1.8-2.2c0-0.1,0-0.2,0-0.3  c0-7.1,0-14.2,0-21.2c0-1.9-1-2.7-2.8-2.8c-0.3,0-0.5,0-0.8,0c-0.3,0-0.5-0.1-0.3-0.5c0.1,0,0.3,0,0.4,0c3.7,0,7.4,0,11.2,0  c0.1,0,0.2,0,0.2,0c0.1,0.1,0.2,0.2,0.3,0.2c-0.1,0.1-0.2,0.2-0.3,0.2c-0.3,0-0.6,0-1,0c-0.3,0-0.7,0.1-1,0.2  c-1.1,0.3-1.7,1.1-1.7,2.3c0,4.8,0,9.5,0,14.3c0,2.7,0,5.4,0,8.2c0,0.3,0.1,0.4,0.4,0.4c2.5,0,4.9,0,7.4,0c0.7,0,1.4-0.1,2.1-0.2  c1.8-0.4,3-1.5,3.8-3.1c0.3-0.5,0.5-1,0.7-1.6c0.1-0.3,0.3-0.3,0.5-0.2c-0.2,0.7-0.4,1.3-0.6,2C76.7,69.5,76.2,71,75.8,72.5  L75.8,72.5z M50.3,45.7c-0.6,0-1.2,0-1.8,0.2c-1.2,0.3-1.8,1.1-1.8,2.3c0,7.2,0,14.5,0,21.7c0,1.5,0.9,2.3,2.5,2.5  c0.4,0,0.9,0,1.3,0c0.1,0.4,0,0.5-0.3,0.5c-3.8,0-7.6,0-11.4,0c-0.1,0-0.2,0-0.3,0c-0.1-0.3,0-0.4,0.3-0.4c0.7,0,1.5,0,2.2-0.3  c0.8-0.3,1.3-1,1.4-1.9c0-0.4,0-0.8,0-1.2c0-6.7,0-13.4,0-20.2c0-0.3,0-0.5,0-0.8c0-1.3-0.8-2.2-2.1-2.3c-0.5-0.1-1-0.1-1.5-0.1  c-0.2,0-0.3,0-0.3-0.2c0-0.2,0.2-0.2,0.3-0.2c3.8,0,7.7,0,11.5,0c0.2,0,0.3,0,0.3,0.2C50.6,45.7,50.5,45.7,50.3,45.7L50.3,45.7z   M33.4,72.4c0.3,0,0.7,0,1,0c0.2,0,0.3,0,0.3,0.2c0,0.2-0.2,0.2-0.3,0.2c-1.6,0-3.2,0-4.9,0c-2.1,0-4.2,0-6.4,0c-0.2,0-0.3,0-0.5,0  c0-0.2,0-0.3,0-0.5c0.2,0,0.5,0,0.7,0c0.6-0.1,1.2-0.1,1.8-0.3c0.9-0.3,1.3-1,1.4-1.9c0-0.3,0-0.6,0-0.9c0-6.4,0-12.8,0-19.2  c0-0.2,0-0.3,0-0.5c0,0-0.1,0-0.1,0c-0.1,0.1-0.1,0.2-0.2,0.4c-1.6,3.6-3.2,7.2-4.8,10.9c-1.7,3.9-3.4,7.8-5.1,11.6  c-0.1,0.1-0.2,0.2-0.3,0.3c-0.1-0.1-0.2-0.2-0.3-0.4c-1.7-4-3.4-7.9-5.2-11.9C9,57.1,7.5,53.5,5.9,50c-0.1-0.1-0.1-0.2-0.2-0.4  c0,0.1,0,0.2,0,0.3c0,6.5,0,13,0,19.5c0,0.4,0,0.8,0.1,1.1c0.1,0.8,0.6,1.3,1.3,1.5c0.6,0.2,1.2,0.2,1.8,0.3c0.2,0,0.4,0,0.6,0  c0,0.2,0,0.3,0,0.5c-3.2,0-6.4,0-9.6,0c0-0.1,0-0.3,0-0.4c0.6,0,1.3,0,1.9-0.1c1.3-0.2,1.9-0.9,2-2.2c0-0.2,0-0.4,0-0.6  c0-6.1,0-12.1,0-18.2c0-1,0-2.1,0-3.1c0-1.2-0.6-2.1-1.8-2.3c-0.7-0.1-1.4-0.1-2.1-0.1c0-0.2,0-0.3,0-0.5c2.6,0,5.2,0,7.7,0  c0.3,0,0.5,0.1,0.6,0.4c2,4.5,4,9.1,6,13.6c1,2.2,1.9,4.3,2.9,6.5c0,0.1,0.1,0.1,0.2,0.3c0.1-0.1,0.1-0.2,0.2-0.3  c2.2-4.9,4.3-9.8,6.5-14.6c0.8-1.8,1.6-3.7,2.4-5.5c0-0.1,0.2-0.2,0.3-0.2c2.6,0,5.2,0,7.8,0c0,0,0.1,0,0.1,0  c0.1,0.4,0.1,0.4-0.3,0.4c-0.7,0.1-1.3,0.1-2,0.2c-1,0.3-1.5,1.1-1.6,2.1c0,0.2,0,0.5,0,0.7c0,7,0,14.1,0,21.1  C30.8,71.4,31.7,72.3,33.4,72.4L33.4,72.4z M137.2,48.8c0-0.3,0-0.6-0.1-1c-0.1-1-0.7-1.7-1.7-1.9c-0.6-0.1-1.2-0.1-1.8-0.2  c-0.2,0-0.4,0.1-0.4-0.2c0-0.3,0.2-0.2,0.4-0.2c3.8,0,7.6,0,11.3,0c0.2,0,0.4-0.1,0.4,0.2c0,0.3-0.2,0.2-0.4,0.2  c-0.6,0.1-1.2,0-1.7,0.2c-1.2,0.3-1.8,1.1-1.8,2.3c0,3,0,6,0,9c0,4.1,0,8.1,0,12.2c0,0.1,0,0.2,0,0.3c-0.1,1.7,0.8,2.6,2.6,2.8  c0.3,0,0.7,0,1,0c0.2,0,0.3,0.1,0.3,0.2c0,0.1-0.2,0.2-0.2,0.2c-0.1,0-0.1,0-0.2,0c-3.7,0-7.4,0-11.2,0c-0.1,0-0.3,0-0.4,0  c-0.1-0.4,0-0.5,0.3-0.5c0.5,0,1,0,1.4-0.1c1.4-0.2,2.1-1,2.1-2.4c0-0.3,0-0.5,0-0.8C137.2,62.3,137.2,55.5,137.2,48.8L137.2,48.8z   M147.7,45.9c0-0.1,0-0.3,0.1-0.4c0-0.1,0.1-0.2,0.2-0.2c0.1,0,0.2,0,0.3,0c7.3,0,14.6,0,21.9,0c0.1,0,0.2,0,0.3,0  c0.2,0,0.3,0.1,0.3,0.3c0,0.6,0.1,1.3,0.1,1.9c0.1,1.3,0.1,2.5,0.2,3.8c0,0,0,0.1,0,0.1c-0.4,0.1-0.5,0.1-0.5-0.3  c-0.3-2.3-1.7-3.8-4-3.9c-1.6-0.1-3.3-0.1-4.9-0.1c-0.2,0-0.3,0.1-0.3,0.3c0,7.4,0,14.8,0,22.2c0,0.3,0,0.7,0.1,1  c0.2,1,0.9,1.6,2,1.7c0.6,0.1,1.2,0.1,1.8,0.1c0,0.1,0,0.3,0,0.4c-4,0-8,0-12,0c0-0.1,0-0.3,0-0.4c0.6,0,1.1-0.1,1.7-0.1  c1.5-0.2,2.2-1,2.2-2.5c0-7.5,0-15,0-22.5c0-0.2,0-0.3-0.3-0.3c-1.5,0-3,0-4.6,0.1c-0.7,0-1.4,0.2-2.1,0.5c-1.4,0.6-2,1.8-2.2,3.2  c0,0.1,0,0.2,0,0.3c0,0.4-0.2,0.4-0.5,0.3c0-0.6,0.1-1.3,0.1-1.9C147.6,48.3,147.6,47.1,147.7,45.9L147.7,45.9z"/>
</svg>