<?xml version="1.0" encoding="UTF-8"?>
<!-- Generator: Adobe Illustrator 21.1.0, SVG Export Plug-In . SVG Version: 6.00 Build 0)  -->
<svg version="1.1" id="Слой_1" xmlns="http://www.w3.org/2000/svg" xmlns:xlink="http://www.w3.org/1999/xlink" x="0px" y="0px" viewBox="0 0 3375.8 830" style="enable-background:new 0 0 3375.8 830;" xml:space="preserve">
<style type="text/css">
	.st0{fill:#f7a600;}
	.st1{fill:white;}
</style>
<path class="st0" d="M228.2,389.8c-62.1,0-109.8-35.8-109.8-96.4c0-60.9,45.1-99.6,113.7-99.6c64.7,0,108.1,39.5,108.1,96.1  C340.1,358.5,285,389.8,228.2,389.8L228.2,389.8z M229.9,235.4c-31.3,0-43.5,28.7-43.5,56.4c0,32.1,15.3,56.2,43.5,56.2  c26,0,42.1-22.6,42.1-56.6C272,263.9,259.8,235.4,229.9,235.4L229.9,235.4z M525.5,385.6l-3.1-26.4h-1.4  c-8.3,11.5-28.2,30.6-66.4,30.6c-43.4,0-74.7-23.8-74.7-81.6V198.4h66.1v100.7c0,27.2,9.9,43.8,33.2,43.8c18.4,0,29.2-11.2,33-20.4  c1.7-3.5,2.5-7.7,2.5-12.6V198.4H581v127c0,24.6,1,44.5,1.7,60.2H525.5L525.5,385.6z M707.7,241.2v67.9c0,22.6,6.6,33,26.1,33  c9.1,0,13.5-0.6,19.5-1.6l0.4,43.9c-8.3,2.8-24.3,5.1-42.5,5.1c-21.3,0-39-6.6-49.8-16c-12.3-11.3-18.3-29.3-18.3-55.6v-76.6h-28.2  v-42.9h28.2v-34.8l64.6-15.7v50.5H755v42.9H707.7L707.7,241.2z M2982.4,397.8c-13.7,0-23.4-10.9-23.4-25.4  c0-14.5,10.1-25.4,24.2-25.4c14.1,0,23.8,10.5,23.8,25.4C3006.9,386.9,2997.2,397.8,2982.4,397.8L2982.4,397.8z M3214.5,393.4H3171  l-66.9-93.4l-18.1,20.2v73.3H3051V107.4h35.1v180.4h0.8c4.8-6.9,11.3-15.3,16.9-22.1l57.7-67.3h42.3l-75,80.1L3214.5,393.4  L3214.5,393.4z M3375.8,365.2v28.2h-157.9v-20.6l87.9-114.8c8.8-10.8,16.9-20.1,25.8-30.6v-0.8H3226v-28.2h148.3v22.1l-87,113.2  c-8.5,10.8-16.1,20.9-25,30.6v0.8H3375.8L3375.8,365.2z M2787,541.2H126.2C56.5,541.2,0,493.3,0,434.6V107.3  C0,48.8,56.5,0.8,126.2,0.8L2787,0c66.9,0,121.3,45.4,121.3,101v339.9C2908.4,496.7,2854,541.2,2787,541.2L2787,541.2z M1672.6,19.5  H126.2C66.8,19.5,18.5,59,18.5,107.3v327.2c0,48.4,48.3,87.8,107.6,87.8h1546.4V19.5L1672.6,19.5z M1982.3,198.4l-17.7,74.3  c-5.2,21.4-9.7,42.9-12.5,64h-1c-3.9-21.5-9.6-42.3-15.7-63.7l-21.3-74.6h-52l-22.6,77.4c-4.7,18.3-11.4,39.4-15.3,60.9h-1.3  c-3.6-21.5-7.8-42.3-11.7-61.4l-17.3-76.9h-67.3l62,187.3h62l21.3-65.8c5.2-17.3,9.6-35,13.3-58.2h1c4.3,23.2,8.3,40.2,13.9,58.5  l20,65.5h61.7l64.9-187.3H1982.3L1982.3,198.4z M2172.9,193.7c-68.5,0-113.6,38.7-113.6,99.6c0,60.6,47.5,96.4,109.7,96.4  c56.9,0,112-31.3,112-99.9C2280.9,233.2,2237.6,193.7,2172.9,193.7L2172.9,193.7z M2443.5,194.9c-4.8-0.9-7.8-1.2-13.9-1.2  c-21,0-46.5,11.5-57.4,39.1h-1.6l-2.6-34.5h-56.5c1.4,16.1,1.7,34.1,1.7,61.6v125.7h66v-95c0-4.6,0.6-9.2,1.4-13  c4.3-18,20.9-29.5,45.2-29.5c7.2,0,12.6,0.9,17.8,1.6V194.9L2443.5,194.9z M2542.9,113.8h-66.1v271.8h66.1V113.8L2542.9,113.8z   M2789.4,329.8V113.8h-66v101.1h-0.8c-9.5-12.6-29.7-21.1-56-21.1c-50.8,0-95.5,36.9-95,99.8c0,58.2,40.3,96.2,90.6,96.2  c27.4,0,53.3-10.7,66.4-31.3h1.4l2.4,27.1h58.8C2790.2,373,2789.4,350.7,2789.4,329.8L2789.4,329.8z M2170.7,348  c-28.3,0-43.5-24-43.5-56.2c0-27.7,12.2-56.4,43.5-56.4c29.9,0,42,28.5,42,56C2212.8,325.4,2196.7,348,2170.7,348L2170.7,348z   M2722.2,315.6c-4,16.5-19.5,28-38.8,28c-27.2,0-45.1-20.1-45.1-51.7c0-29.5,15.3-53.3,45.7-53.3c20.5,0,34.8,13,38.6,28.3  c0.8,3.6,0.8,7.7,0.8,10.8v24.5C2723.4,306.7,2723.1,311.4,2722.2,315.6L2722.2,315.6z"/>
<path class="st1" d="M959.8,385.6l-1.8-32.1h-1.3c-11.3,20.6-36.4,36.3-70.7,36.3c-50.8,0-90.2-38-90.2-94.2  c-0.4-61.6,43.4-99.2,94.2-99.2c32.6,0,53.8,13.4,63.4,28.1h0.9V113.8h37.7v223.9c0,16.4,1,35.2,1.8,47.9H959.8L959.8,385.6z   M954.2,275.8c0-4.3-0.4-10-1.7-14.2c-5.7-21.2-26.5-38.7-55.2-38.7c-39.4,0-62.9,30.5-62.9,71.2c0,37.6,21.2,68.4,62.1,68.4  c25.4,0,48.9-15.4,55.9-40.1c1.4-4.6,1.7-9.3,1.7-14.7V275.8L954.2,275.8z M1126.1,389.8c-56.3,0-100.8-36.7-100.8-95.4  c0-61.6,46.5-98.1,104.2-98.1c60.4,0,101.1,38.8,101.1,95.1C1230.7,359.9,1176.4,389.8,1126.1,389.8L1126.1,389.8z M1128.7,221.6  c-44.6,0-64.2,36.9-64.2,71.7c0,40.4,26.1,71.2,63.4,71.2c36.5,0,63.9-30.3,63.9-72C1191.7,261.1,1173.9,221.6,1128.7,221.6  L1128.7,221.6z M1364.4,389.8c-56.5,0-100.7-36.7-100.7-95.4c0-61.6,46.4-98.1,104.1-98.1c60.3,0,101,38.8,101,95.1  C1468.9,359.9,1414.7,389.8,1364.4,389.8L1364.4,389.8z M1367,221.6c-44.7,0-64.3,36.9-64.3,71.7c0,40.4,26.1,71.2,63.3,71.2  c36.6,0,64-30.3,64-72C1429.9,261.1,1412.1,221.6,1367,221.6L1367,221.6z M1595.3,228.3c-26.9,0-46,17.6-51.2,42.8  c-0.9,4.7-1.4,10.4-1.4,15.8v98.7h-38.2V258c0-21.8-0.5-40.4-1.6-57.7h33.2l1.8,36.8h1.3c9.7-24.9,33-40.7,58.5-40.7  c4,0,7,0.6,10.6,0.9v31.8C1604.4,228.3,1600.5,228.3,1595.3,228.3L1595.3,228.3z"/>

    <text font-size="160" font-family="'Arial', sans-serif" id="svg_3" fill="white" y="796" x="0">Официальный дилер "EURASIA MOTORS"</text>
</svg>